<svg width="21" height="32" viewBox="0 0 21 32" fill="none" xmlns="http://www.w3.org/2000/svg">
<path d="M19.7459 12.216C19.5438 12.1662 19.2725 12.1192 18.9371 12.0743C17.8152 9.60739 15.5832 7.74113 12.8714 6.9982V4.05093C12.8714 3.79053 12.6492 3.57904 12.3747 3.57904H12.0793L12.8086 0.577888C12.8426 0.437391 12.807 0.290685 12.7134 0.177488C12.6191 0.0650409 12.4758 0 12.3245 0H8.1598C8.00793 0 7.86521 0.0650345 7.77085 0.177488C7.67649 0.290679 7.6412 0.437384 7.67518 0.577888L8.40443 3.57904H8.10958C7.83538 3.57904 7.61294 3.79004 7.61294 4.05093V5.03967L4.14323 4.7048C4.13643 4.70456 4.12964 4.70456 4.1231 4.70406C4.1035 4.70257 4.08416 4.70158 4.06455 4.70158C2.66427 4.7048 1.52544 5.7876 1.52544 7.1186C1.52544 7.37553 1.56935 7.62896 1.65247 7.86973C1.65482 7.87693 1.65744 7.88438 1.66031 7.89133C1.75598 8.15967 1.90053 8.41162 2.08978 8.63477L2.88808 9.97397C2.34779 10.6067 1.89425 11.3112 1.54742 12.0743C1.21206 12.1187 0.940741 12.1661 0.738682 12.216C0.536369 12.2659 0 12.3985 0 12.858V12.8652L0.262436 29.0157C0.264004 29.5224 0.589694 29.9826 1.23037 30.3848C1.75158 30.7117 2.48243 31.0011 3.40279 31.2456C5.23641 31.7322 7.66578 32 10.2422 32C12.8193 32 15.2481 31.7319 17.0817 31.2456C18.0023 31.0011 18.7332 30.7119 19.2544 30.3848C19.8948 29.9826 20.2207 29.5224 20.2223 29.0157L20.4847 12.8652V12.858C20.4847 12.3982 19.9481 12.2654 19.7458 12.216L19.7459 12.216ZM11.7006 0.943368L11.0602 3.57887H9.42444L8.78378 0.943368H11.7006ZM4.04277 6.02221L7.61305 6.36626V6.99751C6.21539 7.38053 4.94506 8.06295 3.88853 8.97142L2.958 7.41032C2.93055 7.31574 2.91592 7.21719 2.91592 7.1179C2.91618 6.52263 3.41883 6.03657 4.04278 6.02221L4.04277 6.02221ZM19.2293 29.0041C19.2293 29.0064 19.229 29.0084 19.229 29.0113C19.229 29.2655 18.7209 29.8305 16.8146 30.3366C15.0659 30.8006 12.7316 31.056 10.2424 31.056C7.75325 31.056 5.41903 30.8005 3.67006 30.3364C1.7643 29.8302 1.25614 29.2653 1.25614 29.0111C1.25614 29.0083 1.25614 29.0061 1.25588 29.0039L1.00181 13.3636C1.0695 13.3767 1.14034 13.3889 1.21248 13.4003C1.71226 13.483 2.42506 13.5565 3.33003 13.6195C5.17777 13.7483 7.63277 13.8196 10.2431 13.8196C12.8533 13.8196 15.3085 13.7483 17.1561 13.6195C18.061 13.5565 18.7734 13.4827 19.2737 13.4003C19.3453 13.3889 19.4156 13.3767 19.4838 13.3636L19.2293 29.0041Z" fill="white"/>
<path d="M17.3657 19.6644C17.229 19.5776 17.0439 19.6126 16.9524 19.7431L15.4521 21.8802L13.97 19.7444C13.8801 19.6141 13.695 19.5778 13.5575 19.664C13.4203 19.7496 13.3821 19.9251 13.4726 20.0562L15.0929 22.3918L13.4734 24.6989C13.3824 24.8287 13.4188 25.0042 13.5562 25.0914C13.6075 25.1236 13.6645 25.139 13.7207 25.139C13.8176 25.139 13.9123 25.0946 13.969 25.0132L15.4492 22.9054L16.9514 25.0705C17.0084 25.1534 17.1033 25.1983 17.2003 25.1983C17.2562 25.1983 17.3134 25.1834 17.3639 25.1517C17.5014 25.0655 17.5393 24.89 17.4488 24.7592L15.8079 22.394L17.4481 20.0576C17.5396 19.9263 17.5025 19.7511 17.3658 19.6644L17.3657 19.6644Z" fill="white"/>
<path d="M12.1469 19.8621C12.0105 19.7757 11.8254 19.8104 11.7337 19.9408L10.2336 22.078L8.75151 19.9418C8.66133 19.8115 8.47653 19.7757 8.33851 19.8614C8.20128 19.9475 8.16364 20.123 8.25382 20.2538L9.87419 22.5894L8.25463 24.8958C8.16366 25.0261 8.20026 25.2018 8.33749 25.2882C8.38846 25.321 8.4457 25.3359 8.50242 25.3359C8.59914 25.3359 8.6935 25.2922 8.75074 25.21L10.2304 23.1025L11.7326 25.2678C11.7899 25.35 11.885 25.3952 11.9817 25.3952C12.0377 25.3952 12.0949 25.3798 12.1454 25.3483C12.2834 25.2626 12.321 25.0871 12.2301 24.9561L10.5896 22.5909L12.2293 20.2545C12.3215 20.1242 12.2844 19.9492 12.1469 19.8621L12.1469 19.8621Z" fill="white"/>
<path d="M6.92885 19.6644C6.79214 19.5776 6.60734 19.6126 6.51559 19.7431L5.01548 21.8802L3.53343 19.7444C3.44325 19.6141 3.25845 19.5778 3.12043 19.664C2.98294 19.7496 2.94556 19.9251 3.03575 20.0562L4.65611 22.3918L3.03655 24.6989C2.94558 24.8287 2.98218 25.0042 3.11941 25.0914C3.17038 25.1236 3.22763 25.139 3.28434 25.139C3.38106 25.139 3.47542 25.0946 3.53266 25.0132L5.01163 22.9054L6.51436 25.0705C6.5716 25.1534 6.66648 25.1983 6.76346 25.1983C6.81966 25.1983 6.87665 25.1834 6.92709 25.1517C7.06432 25.0655 7.10249 24.89 7.01178 24.7592L5.37128 22.394L7.01098 20.0576C7.10325 19.9263 7.06613 19.7511 6.9289 19.6644L6.92885 19.6644Z" fill="white"/>
</svg>
