<svg width="300" height="191" viewBox="0 0 300 191" fill="none" xmlns="http://www.w3.org/2000/svg">
<mask id="mask0_5397_19102" style="mask-type:luminance" maskUnits="userSpaceOnUse" x="0" y="0" width="300" height="191">
<path d="M300 0H0V190.173H300V0Z" fill="white"/>
</mask>
<g mask="url(#mask0_5397_19102)">
<path fill-rule="evenodd" clip-rule="evenodd" d="M187.284 97.1095C171.388 114.451 168.787 108.381 171.966 98.2655L187.284 63.8725L178.324 63.2944C175.145 65.6066 172.255 68.2077 169.654 70.8089C147.4 57.8031 125.723 97.9765 123.411 103.757C121.099 109.537 111.272 131.503 124.278 135.549C137.284 139.595 146.532 126.878 152.891 116.763C152.602 120.809 156.937 125.433 161.561 127.167C167.631 128.901 179.48 116.474 188.729 104.046C188.729 103.468 188.729 103.179 189.018 102.601C189.018 102.312 189.018 102.023 189.018 101.734C188.729 100.867 188.729 100.289 188.44 99.4216C187.862 98.8436 187.573 97.9765 187.284 97.1095ZM154.047 103.468C149.423 110.982 141.908 117.341 139.885 116.185C137.862 115.029 134.972 111.271 139.885 101.445C146.243 88.1499 157.804 77.7453 161.561 80.0574C165.319 84.1037 158.382 95.9534 154.047 103.468Z" fill="white"/>
<path fill-rule="evenodd" clip-rule="evenodd" d="M240.173 79.1908C226.878 93.9307 224.277 88.7284 227.167 80.0579L239.884 51.1562L232.37 50.5781C229.769 52.6012 227.167 54.6244 224.855 56.9365C206.069 45.9538 187.572 80.0579 185.549 84.9712C183.526 89.8845 175.433 108.671 186.416 112.139C197.399 115.607 205.491 104.624 210.693 95.9538C210.404 99.422 214.162 103.468 218.208 104.624C223.41 106.069 233.526 95.6648 241.329 84.9712C241.329 84.6822 241.329 84.1041 241.618 83.8151C241.618 83.5261 241.618 83.2371 241.618 83.2371C241.329 82.659 241.329 82.081 241.329 81.214C240.751 80.6359 240.462 79.7689 240.173 79.1908ZM211.85 84.6822C208.092 91.0405 201.734 96.2429 199.711 95.3758C197.977 94.5088 195.665 91.3296 199.711 82.9481C205.202 71.6764 215.029 62.7168 218.208 64.74C221.387 67.9192 215.607 78.3238 211.85 84.6822Z" fill="white"/>
<path fill-rule="evenodd" clip-rule="evenodd" d="M252.601 77.457C270.52 59.827 285.549 39.5958 297.688 17.6304C304.624 4.62465 295.665 -4.33488 285.26 1.73448C274.855 7.80384 243.064 41.0408 237.283 79.7692C234.104 83.5264 230.636 87.2836 227.168 90.7518C227.168 90.7518 227.168 90.7518 227.457 91.0408C228.613 92.4859 229.48 93.931 230.058 95.9541C230.347 96.5322 230.347 97.3992 230.347 97.9773C232.948 95.3761 235.26 92.7749 237.572 90.1738C240.751 102.602 254.913 104.336 270.231 104.336C235.838 113.295 113.584 156.359 80.9248 174.856L106.936 189.885C139.306 167.341 218.786 122.544 298.555 100.578L296.532 93.642C280.347 97.1102 255.202 101.156 252.601 77.457ZM286.705 13.0062C292.485 11.8501 278.613 41.3299 253.179 66.7634C256.936 45.3761 278.035 13.5842 286.705 13.0062Z" fill="white"/>
<path fill-rule="evenodd" clip-rule="evenodd" d="M48.5549 138.44C55.2023 123.7 62.7168 109.539 71.0983 95.6658C80.3468 90.7525 86.7052 90.7525 92.7746 92.7756C99.711 95.0878 101.734 111.562 94.2196 125.435C86.7052 138.44 63.2948 158.672 48.5549 138.44ZM107.514 39.8854C109.827 36.7063 112.139 34.1051 114.451 31.793C123.699 34.1051 131.503 39.3074 125.434 55.4924C117.341 76.5906 92.7746 84.3941 79.4798 80.9259C88.4393 66.7641 97.6879 53.1802 107.514 39.8854ZM108.96 129.481C114.74 116.186 119.075 98.845 103.179 87.8623C117.919 84.6831 139.306 70.2323 140.462 52.8912C141.618 39.8854 136.127 30.3479 120.809 25.4346C130.058 17.6311 136.994 15.897 140.751 18.7872C145.665 23.7005 153.179 18.2091 147.688 14.1629C137.572 4.62532 122.832 9.82763 109.249 23.1224C107.514 22.8334 105.78 22.8334 103.757 22.5444C75.1445 20.2323 29.1908 33.8161 9.82659 62.7178C-2.60116 81.793 -1.44509 104.336 32.3699 99.423C37.5723 98.2669 36.7052 93.3537 32.0809 93.6427C27.4566 93.9317 21.0983 88.7294 21.6763 80.0589C22.2543 71.3883 38.7283 32.371 102.312 30.6369C74.2775 62.4288 21.6763 142.487 0 182.66C0 182.66 21.9653 177.747 34.9711 173.7C37.5723 165.03 40.4624 156.648 43.9306 148.267C49.422 157.226 59.5376 161.851 69.9422 160.695C87.8613 159.539 103.179 143.065 108.96 129.481Z" fill="white"/>
</g>
</svg>
