<svg width="154" height="240" viewBox="0 0 154 240" fill="none" xmlns="http://www.w3.org/2000/svg">
<path d="M147.894 91.6203C146.381 91.2461 144.349 90.8943 141.837 90.5573C133.434 72.0554 116.717 58.0585 96.4051 52.4865V30.382C96.4051 28.429 94.741 26.8428 92.6853 26.8428H90.473L95.935 4.33416C96.1895 3.28043 95.9232 2.18014 95.2223 1.33116C94.5155 0.487806 93.4427 0 92.3091 0H61.116C59.9786 0 58.9096 0.487759 58.2028 1.33116C57.4961 2.18009 57.2318 3.28038 57.4863 4.33416L62.9483 26.8428H60.7399C58.6862 26.8428 57.0201 28.4253 57.0201 30.382V37.7975L31.0323 35.286C30.9814 35.2842 30.9305 35.2842 30.8816 35.2804C30.7348 35.2693 30.5899 35.2618 30.4431 35.2618C19.9551 35.286 11.4254 43.407 11.4254 53.3895C11.4254 55.3164 11.7543 57.2172 12.3768 59.023C12.3944 59.077 12.414 59.1328 12.4356 59.185C13.1521 61.1975 14.2347 63.0872 15.6522 64.7608L21.6314 74.8048C17.5847 79.5503 14.1877 84.834 11.59 90.5571C9.07823 90.8903 7.04605 91.2459 5.53265 91.6201C4.01735 91.9943 0 92.9885 0 96.4348V96.4888L1.96562 217.618C1.97736 221.418 4.41675 224.87 9.21535 227.886C13.1192 230.338 18.5931 232.508 25.4865 234.342C39.2202 237.991 57.4159 240 76.7133 240C96.0152 240 114.207 237.989 127.94 234.342C134.835 232.508 140.309 230.339 144.213 227.886C149.01 224.87 151.451 221.418 151.463 217.618L153.429 96.4888V96.4348C153.429 92.9868 149.409 91.9908 147.894 91.6201L147.894 91.6203ZM87.6362 7.07526L82.8397 26.8415H70.5881L65.7896 7.07526H87.6362ZM30.2799 45.1665L57.021 47.7469V52.4813C46.5526 55.354 37.038 60.4721 29.1247 67.2857L22.1551 55.5774C21.9495 54.868 21.8399 54.1289 21.8399 53.3842C21.8419 48.9198 25.6067 45.2743 30.28 45.1666L30.2799 45.1665ZM144.025 217.531C144.025 217.548 144.023 217.563 144.023 217.585C144.023 219.491 140.217 223.729 125.939 227.525C112.842 231.004 95.3586 232.92 76.7148 232.92C58.071 232.92 40.588 231.004 27.4883 227.523C13.2144 223.727 9.40836 219.489 9.40836 217.583C9.40836 217.563 9.40836 217.546 9.4064 217.529L7.50342 100.227C8.01048 100.326 8.54103 100.417 9.08137 100.502C12.8247 101.122 18.1635 101.673 24.9416 102.146C38.781 103.113 57.1687 103.647 76.7196 103.647C96.2701 103.647 114.659 103.113 128.498 102.146C135.275 101.673 140.61 101.121 144.358 100.502C144.894 100.417 145.421 100.326 145.932 100.227L144.025 217.531Z" fill="white"/>
<path d="M130.067 147.483C129.043 146.832 127.657 147.094 126.972 148.074L115.734 164.101L104.634 148.083C103.96 147.106 102.574 146.834 101.544 147.48C100.517 148.122 100.231 149.438 100.908 150.421L113.044 167.939L100.914 185.242C100.233 186.215 100.505 187.532 101.535 188.185C101.919 188.427 102.345 188.543 102.766 188.543C103.493 188.543 104.201 188.209 104.626 187.599L115.713 171.791L126.964 188.029C127.391 188.65 128.102 188.987 128.828 188.987C129.247 188.987 129.676 188.876 130.054 188.637C131.083 187.991 131.367 186.675 130.69 185.694L118.399 167.955L130.684 150.432C131.37 149.447 131.092 148.133 130.068 147.483L130.067 147.483Z" fill="white"/>
<path d="M90.9792 148.966C89.9572 148.318 88.5711 148.578 87.8839 149.556L76.6482 165.585L65.5478 149.563C64.8724 148.586 63.4882 148.318 62.4545 148.96C61.4267 149.606 61.1448 150.922 61.8202 151.904L73.9566 169.421L61.8262 186.718C61.1449 187.696 61.419 189.014 62.4469 189.662C62.8286 189.907 63.2574 190.019 63.6822 190.019C64.4066 190.019 65.1134 189.691 65.5421 189.075L76.6249 173.269L87.8762 189.509C88.3049 190.125 89.0175 190.464 89.7419 190.464C90.1609 190.464 90.5897 190.349 90.9675 190.112C92.0012 189.47 92.2831 188.154 91.6018 187.171L79.3146 169.432L91.5958 151.909C92.2869 150.931 92.0089 149.619 90.9791 148.965L90.9792 148.966Z" fill="white"/>
<path d="M51.8962 147.483C50.8722 146.832 49.4881 147.094 48.8009 148.074L37.5652 164.101L26.4648 148.083C25.7894 147.106 24.4052 146.834 23.3715 147.48C22.3417 148.122 22.0618 149.438 22.7372 150.421L34.8736 167.939L22.7432 185.242C22.0619 186.215 22.336 187.532 23.3639 188.185C23.7456 188.427 24.1744 188.543 24.5992 188.543C25.3236 188.543 26.0303 188.209 26.4591 187.599L37.5364 171.791L48.7916 188.029C49.2204 188.65 49.931 188.987 50.6574 188.987C51.0783 188.987 51.5051 188.876 51.883 188.637C52.9108 187.991 53.1967 186.675 52.5173 185.694L40.2301 167.955L52.5113 150.432C53.2024 149.447 52.9244 148.133 51.8965 147.483L51.8962 147.483Z" fill="white"/>
</svg>
