<svg width="36" height="30" viewBox="0 0 36 30" fill="none" xmlns="http://www.w3.org/2000/svg">
<path d="M11.3085 29.7501C24.894 29.7501 32.3257 18.4933 32.3257 8.74859C32.3257 8.43359 32.3258 8.11409 32.3123 7.79909C33.7591 6.75169 35.0079 5.45494 36 3.96959C34.6485 4.56551 33.2162 4.95826 31.7498 5.13509C33.2945 4.21178 34.4514 2.75902 35.0055 1.04684C33.5542 1.90662 31.9658 2.51019 30.3097 2.83109C29.1964 1.6454 27.7232 0.85991 26.1182 0.596299C24.5132 0.332689 22.8661 0.605668 21.432 1.37295C19.9979 2.14024 18.8568 3.35901 18.1855 4.84048C17.5142 6.32195 17.3502 7.98344 17.7188 9.5676C14.7819 9.42034 11.9088 8.6574 9.28585 7.32827C6.66286 5.99913 4.34854 4.13349 2.493 1.85234C1.55102 3.47928 1.26354 5.40375 1.68895 7.23494C2.11437 9.06614 3.22077 10.6668 4.7835 11.7118C3.61246 11.6721 2.46717 11.3576 1.44 10.7938V10.8951C1.44202 12.5994 2.03244 14.2508 3.11147 15.5701C4.19049 16.8893 5.69193 17.7956 7.362 18.1356C6.72809 18.3102 6.07327 18.3973 5.41575 18.3943C4.95221 18.3958 4.48961 18.3528 4.03425 18.2661C4.50627 19.7332 5.42536 21.016 6.66281 21.9347C7.90025 22.8534 9.39405 23.362 10.935 23.3893C8.31725 25.4454 5.08365 26.5605 1.755 26.5551C1.16847 26.5576 0.582352 26.5238 0 26.4538C3.37841 28.6077 7.30192 29.7513 11.3085 29.7501V29.7501Z" fill="white"/>
</svg>
